<svg width="142" height="128" viewBox="0 0 142 128" fill="none" xmlns="http://www.w3.org/2000/svg">
<path d="M71 10.6667C103.624 10.6667 130.167 34.592 130.167 64C130.167 93.408 103.624 117.333 71 117.333C38.3755 117.333 11.8333 93.408 11.8333 64C11.8333 34.592 38.3755 10.6667 71 10.6667ZM71 0C31.7903 0 0 28.656 0 64C0 99.344 31.7903 128 71 128C110.21 128 142 99.344 142 64C142 28.656 110.21 0 71 0ZM103.583 74.352C94.6371 80.7253 84.8036 84.6507 71.0059 84.6507C57.1964 84.6507 47.3629 80.7253 38.4169 74.352L35.5 76.9813C42.1681 86.1547 54.4333 96 71.0059 96C87.5726 96 99.8319 86.1547 106.5 76.9813L103.583 74.352ZM50.2917 42.6667C45.3927 42.6667 41.4167 46.2453 41.4167 50.6667C41.4167 55.088 45.3927 58.6667 50.2917 58.6667C55.1907 58.6667 59.1667 55.088 59.1667 50.6667C59.1667 46.2453 55.1907 42.6667 50.2917 42.6667ZM91.7083 42.6667C86.8093 42.6667 82.8333 46.2453 82.8333 50.6667C82.8333 55.088 86.8093 58.6667 91.7083 58.6667C96.6073 58.6667 100.583 55.088 100.583 50.6667C100.583 46.2453 96.6073 42.6667 91.7083 42.6667V42.6667Z" fill="#08325A"/>
</svg>
