<svg width="44" height="40" viewBox="0 0 44 40" fill="none" xmlns="http://www.w3.org/2000/svg">
<path d="M30.25 15.6666L13.75 7.0166" stroke="#245373" stroke-width="2" stroke-linecap="round" stroke-linejoin="round"/>
<path d="M38.5 26.6668V13.3335C38.4993 12.749 38.3296 12.1748 38.0078 11.6688C37.686 11.1627 37.2235 10.7424 36.6667 10.4502L23.8333 3.7835C23.2759 3.49093 22.6436 3.33691 22 3.33691C21.3564 3.33691 20.7241 3.49093 20.1667 3.7835L7.33333 10.4502C6.77648 10.7424 6.31396 11.1627 5.99218 11.6688C5.6704 12.1748 5.50066 12.749 5.5 13.3335V26.6668C5.50066 27.2514 5.6704 27.8255 5.99218 28.3316C6.31396 28.8376 6.77648 29.2579 7.33333 29.5502L20.1667 36.2168C20.7241 36.5094 21.3564 36.6634 22 36.6634C22.6436 36.6634 23.2759 36.5094 23.8333 36.2168L36.6667 29.5502C37.2235 29.2579 37.686 28.8376 38.0078 28.3316C38.3296 27.8255 38.4993 27.2514 38.5 26.6668Z" stroke="#245373" stroke-width="2" stroke-linecap="round" stroke-linejoin="round"/>
<path d="M5.99512 11.5996L22.0001 20.0163L38.0051 11.5996" stroke="#245373" stroke-width="2" stroke-linecap="round" stroke-linejoin="round"/>
<path d="M22 36.8V20" stroke="#245373" stroke-width="2" stroke-linecap="round" stroke-linejoin="round"/>
</svg>
