<svg width="41" height="38" viewBox="0 0 41 38" fill="none" xmlns="http://www.w3.org/2000/svg">
<path d="M28.1875 14.8835L12.8125 6.66602" stroke="#1AB394" stroke-width="2" stroke-linecap="round" stroke-linejoin="round"/>
<path d="M35.875 25.3333V12.6667C35.8744 12.1114 35.7162 11.566 35.4164 11.0852C35.1165 10.6044 34.6856 10.2052 34.1667 9.92751L22.2083 3.59417C21.6889 3.31624 21.0998 3.16992 20.5 3.16992C19.9003 3.16992 19.3111 3.31624 18.7917 3.59417L6.83333 9.92751C6.31445 10.2052 5.88347 10.6044 5.58362 11.0852C5.28378 11.566 5.12561 12.1114 5.125 12.6667V25.3333C5.12561 25.8887 5.28378 26.4341 5.58362 26.9148C5.88347 27.3956 6.31445 27.7949 6.83333 28.0725L18.7917 34.4058C19.3111 34.6838 19.9003 34.8301 20.5 34.8301C21.0998 34.8301 21.6889 34.6838 22.2083 34.4058L34.1667 28.0725C34.6856 27.7949 35.1165 27.3956 35.4164 26.9148C35.7162 26.4341 35.8744 25.8887 35.875 25.3333Z" stroke="#1AB394" stroke-width="2" stroke-linecap="round" stroke-linejoin="round"/>
<path d="M5.58643 11.0205L20.5002 19.0163L35.4139 11.0205" stroke="#1AB394" stroke-width="2" stroke-linecap="round" stroke-linejoin="round"/>
<path d="M20.5 34.96V19" stroke="#1AB394" stroke-width="2" stroke-linecap="round" stroke-linejoin="round"/>
</svg>
