<svg width="38" height="31" viewBox="0 0 38 31" fill="none" xmlns="http://www.w3.org/2000/svg">
<path d="M11.8274 1.9375C11.6494 1.93771 11.4738 1.97055 11.3134 2.0336C11.1531 2.09665 11.0122 2.18829 10.9011 2.30175L3.65732 9.6875H14.2499C14.5649 9.6875 14.8669 9.78956 15.0896 9.97124C15.3123 10.1529 15.4374 10.3993 15.4374 10.6562C15.4374 11.427 15.8128 12.1663 16.4809 12.7113C17.149 13.2563 18.0551 13.5625 19 13.5625C19.9448 13.5625 20.851 13.2563 21.5191 12.7113C22.1872 12.1663 22.5625 11.427 22.5625 10.6562C22.5625 10.3993 22.6876 10.1529 22.9103 9.97124C23.133 9.78956 23.4351 9.6875 23.75 9.6875H34.3427L27.0988 2.30175C26.9878 2.18829 26.8469 2.09665 26.6865 2.0336C26.5262 1.97055 26.3506 1.93771 26.1726 1.9375H11.8274ZM35.4684 11.625H24.8188C24.5462 12.72 23.8181 13.7044 22.7576 14.4115C21.6971 15.1186 20.3696 15.5049 19 15.5049C17.6304 15.5049 16.3029 15.1186 15.2424 14.4115C14.1819 13.7044 13.4537 12.72 13.1812 11.625H2.53156L3.29157 16.5889C3.32755 16.8238 3.46774 17.0398 3.68565 17.1962C3.90357 17.3525 4.18412 17.4384 4.47433 17.4375H33.5304C33.8198 17.4374 34.0992 17.3512 34.3161 17.1949C34.533 17.0386 34.6725 16.8231 34.7084 16.5889L35.466 11.625H35.4684ZM9.04625 1.09081C9.38018 0.750277 9.80376 0.47541 10.2856 0.286582C10.7675 0.0977547 11.2952 -0.000192354 11.8298 2.83601e-07H26.1702C26.7048 -0.000192354 27.2325 0.0977547 27.7144 0.286582C28.1962 0.47541 28.6198 0.750277 28.9537 1.09081L37.7413 10.0518C37.84 10.1529 37.913 10.2691 37.9558 10.3935C37.9986 10.5179 38.0105 10.6481 37.9907 10.7764L37.0644 16.8291C36.9567 17.5322 36.5379 18.179 35.8866 18.6478C35.2354 19.1167 34.3966 19.3753 33.528 19.375H4.47195C3.60338 19.3753 2.7646 19.1167 2.11335 18.6478C1.4621 18.179 1.04324 17.5322 0.93554 16.8291L0.00928005 10.7764C-0.0101863 10.648 0.00206098 10.5177 0.0452993 10.3933C0.0885376 10.2688 0.161891 10.1527 0.261033 10.0518L9.04863 1.09081H9.04625ZM0.296658 21.6419C0.40794 21.5385 0.544921 21.4557 0.698487 21.3989C0.852053 21.3421 1.01868 21.3127 1.18729 21.3125H14.2499C14.5649 21.3125 14.8669 21.4146 15.0896 21.5962C15.3123 21.7779 15.4374 22.0243 15.4374 22.2812C15.4374 23.052 15.8128 23.7913 16.4809 24.3363C17.149 24.8813 18.0551 25.1875 19 25.1875C19.9448 25.1875 20.851 24.8813 21.5191 24.3363C22.1872 23.7913 22.5625 23.052 22.5625 22.2812C22.5625 22.0243 22.6876 21.7779 22.9103 21.5962C23.133 21.4146 23.4351 21.3125 23.75 21.3125H36.8127C36.981 21.3125 37.1474 21.3418 37.3009 21.3983C37.4543 21.4548 37.5913 21.5372 37.7027 21.6402C37.8141 21.7432 37.8974 21.8643 37.947 21.9955C37.9967 22.1268 38.0116 22.2651 37.9907 22.4014L37.0644 28.4541C36.9567 29.1572 36.5379 29.804 35.8866 30.2728C35.2354 30.7417 34.3966 31.0003 33.528 31H4.47195C3.60338 31.0003 2.7646 30.7417 2.11335 30.2728C1.4621 29.804 1.04324 29.1572 0.93554 28.4541L0.00928005 22.4014C-0.0117288 22.2651 0.00302949 22.1267 0.0525756 21.9954C0.102122 21.8642 0.185323 21.743 0.296658 21.6399V21.6419ZM2.53156 23.25L3.29157 28.2139C3.3275 28.4485 3.46735 28.6642 3.68476 28.8205C3.90218 28.9769 4.18216 29.0629 4.47195 29.0625H33.528C33.8174 29.0624 34.0968 28.9762 34.3137 28.8199C34.5306 28.6636 34.6702 28.4481 34.706 28.2139L35.466 23.25H24.8188C24.5462 24.345 23.8181 25.3294 22.7576 26.0365C21.6971 26.7436 20.3696 27.1299 19 27.1299C17.6304 27.1299 16.3029 26.7436 15.2424 26.0365C14.1819 25.3294 13.4537 24.345 13.1812 23.25H2.53156Z" fill="#1AB394"/>
</svg>
