<svg width="389" height="379" viewBox="0 0 389 379" fill="none" xmlns="http://www.w3.org/2000/svg">
<path d="M382.964 97.3316L353.8 70.5306C349.775 66.8315 344.496 64.9788 339.218 64.9788C334.764 64.9788 331.253 66.7078 329.942 67.2916L329.945 37.9015C329.945 16.9699 311.479 0 288.701 0L103.109 0.00317556L0 94.7487V341.099C0 362.03 18.4664 379 41.2438 379H288.699C311.477 379 329.943 362.03 329.943 341.099V172.845L382.962 124.123C391.013 116.724 391.013 104.726 382.959 97.3249L382.964 97.3316ZM309.325 341.107C309.325 351.557 300.073 360.056 288.705 360.056H41.2492C29.8777 360.056 20.6291 351.554 20.6291 341.107L20.6256 113.705H123.735V18.9509H288.708C300.08 18.9509 309.329 27.4533 309.329 37.9V84.6019L105.92 271.527V325.125H164.245L309.325 191.803L309.325 341.107ZM324.639 150.934L155.706 306.184H126.542V279.383L295.483 124.133L324.639 150.934ZM339.221 137.533L310.057 110.732L339.221 83.9344L368.382 110.735L339.221 137.533Z" fill="#1AB394"/>
</svg>
