<svg width="24" height="16" viewBox="0 0 24 16" fill="none" xmlns="http://www.w3.org/2000/svg">
<path fill-rule="evenodd" clip-rule="evenodd" d="M0 8C0 7.76429 0.0903001 7.53823 0.251035 7.37155C0.41177 7.20487 0.629774 7.11124 0.857088 7.11124H21.0724L15.6779 1.51913C15.5169 1.35225 15.4265 1.1259 15.4265 0.889887C15.4265 0.653874 15.5169 0.427528 15.6779 0.260642C15.8388 0.0937555 16.0571 5.56065e-09 16.2847 0C16.5123 -5.56065e-09 16.7306 0.0937555 16.8915 0.260642L23.7482 7.37075C23.828 7.45331 23.8913 7.55139 23.9346 7.65937C23.9778 7.76734 24 7.8831 24 8C24 8.1169 23.9778 8.23266 23.9346 8.34063C23.8913 8.44861 23.828 8.54669 23.7482 8.62924L16.8915 15.7394C16.7306 15.9062 16.5123 16 16.2847 16C16.0571 16 15.8388 15.9062 15.6779 15.7394C15.5169 15.5725 15.4265 15.3461 15.4265 15.1101C15.4265 14.8741 15.5169 14.6478 15.6779 14.4809L21.0724 8.88876H0.857088C0.629774 8.88876 0.41177 8.79513 0.251035 8.62845C0.0903001 8.46178 0 8.23571 0 8Z" fill="#1AB394"/>
</svg>
