<svg width="142" height="128" viewBox="0 0 142 128" fill="none" xmlns="http://www.w3.org/2000/svg">
<path d="M71 9.14286C104.559 9.14286 131.857 33.75 131.857 64C131.857 94.25 104.559 118.857 71 118.857C37.4414 118.857 10.1429 94.25 10.1429 64C10.1429 33.75 37.4414 9.14286 71 9.14286ZM71 0C31.7855 0 0 28.6517 0 64C0 99.3483 31.7855 128 71 128C110.215 128 142 99.3483 142 64C142 28.6517 110.215 0 71 0ZM50.7143 32C45.1078 32 40.5714 38.1429 40.5714 45.7143C40.5714 53.2946 45.1081 59.4286 50.7143 59.4286C56.3204 59.4286 60.8571 53.2946 60.8571 45.7143C60.8571 38.1429 56.3208 32 50.7143 32ZM91.2857 32C85.6793 32 81.1429 38.1429 81.1429 45.7143C81.1429 53.2946 85.6796 59.4286 91.2857 59.4286C96.8919 59.4286 101.429 53.2946 101.429 45.7143C101.429 38.1429 96.8922 32 91.2857 32ZM114.612 95.0894C116.851 93.5714 117.307 90.7054 115.633 88.6877C105.143 76.0894 88.4628 68.5714 71 68.5714C53.5372 68.5714 36.8522 76.0894 26.3724 88.6874C24.6884 90.7054 25.1441 93.5714 27.3829 95.0891C29.6263 96.598 32.801 96.1874 34.4848 94.1694C43.0625 83.866 56.7119 77.7143 71 77.7143C85.2834 77.7143 98.9423 83.866 107.51 94.1697C108.511 95.366 110.036 96 111.571 96C112.631 96 113.701 95.7054 114.612 95.0894Z" fill="#08335A"/>
</svg>
