<svg width="38" height="29" viewBox="0 0 38 29" fill="none" xmlns="http://www.w3.org/2000/svg">
<path d="M35.625 29C35.625 29 38 29 38 26.5833C38 24.1667 35.625 16.9167 26.125 16.9167C16.625 16.9167 14.25 24.1667 14.25 26.5833C14.25 29 16.625 29 16.625 29H35.625ZM16.6772 26.5833C16.6597 26.5809 16.6423 26.5776 16.625 26.5737C16.6274 25.9357 17.0216 24.0845 18.43 22.417C19.741 20.8534 22.0448 19.3333 26.125 19.3333C30.2029 19.3333 32.5066 20.8558 33.82 22.417C35.2284 24.0845 35.6203 25.9381 35.625 26.5737L35.606 26.5785C35.595 26.5804 35.5839 26.582 35.5728 26.5833H16.6772ZM26.125 12.0833C27.3848 12.0833 28.593 11.5741 29.4838 10.6677C30.3746 9.76126 30.875 8.53188 30.875 7.25C30.875 5.96812 30.3746 4.73874 29.4838 3.83232C28.593 2.92589 27.3848 2.41667 26.125 2.41667C24.8652 2.41667 23.657 2.92589 22.7662 3.83232C21.8754 4.73874 21.375 5.96812 21.375 7.25C21.375 8.53188 21.8754 9.76126 22.7662 10.6677C23.657 11.5741 24.8652 12.0833 26.125 12.0833ZM33.25 7.25C33.25 8.20208 33.0657 9.14485 32.7076 10.0245C32.3496 10.9041 31.8248 11.7033 31.1631 12.3765C30.5015 13.0497 29.7161 13.5838 28.8516 13.9481C27.9872 14.3125 27.0607 14.5 26.125 14.5C25.1893 14.5 24.2628 14.3125 23.3984 13.9481C22.5339 13.5838 21.7485 13.0497 21.0869 12.3765C20.4252 11.7033 19.9004 10.9041 19.5424 10.0245C19.1843 9.14485 19 8.20208 19 7.25C19 5.32718 19.7507 3.48311 21.0869 2.12348C22.4231 0.763837 24.2353 0 26.125 0C28.0147 0 29.8269 0.763837 31.1631 2.12348C32.4993 3.48311 33.25 5.32718 33.25 7.25ZM16.473 17.5933C15.523 17.2889 14.5436 17.0888 13.5517 16.9964C12.9944 16.9425 12.4348 16.9159 11.875 16.9167C2.375 16.9167 0 24.1667 0 26.5833C0 28.1953 0.790875 29 2.375 29H12.388C12.0359 28.2456 11.8603 27.4184 11.875 26.5833C11.875 24.1425 12.7704 21.6485 14.4638 19.5653C15.0409 18.8548 15.713 18.1903 16.473 17.5933ZM11.685 19.3333C10.2794 21.4824 9.52005 24.0019 9.5 26.5833H2.375C2.375 25.955 2.7645 24.0942 4.18 22.417C5.47438 20.88 7.7235 19.3817 11.685 19.3358V19.3333ZM3.5625 8.45833C3.5625 6.53551 4.31317 4.69145 5.64936 3.33181C6.98556 1.97217 8.79783 1.20833 10.6875 1.20833C12.5772 1.20833 14.3894 1.97217 15.7256 3.33181C17.0618 4.69145 17.8125 6.53551 17.8125 8.45833C17.8125 10.3812 17.0618 12.2252 15.7256 13.5849C14.3894 14.9445 12.5772 15.7083 10.6875 15.7083C8.79783 15.7083 6.98556 14.9445 5.64936 13.5849C4.31317 12.2252 3.5625 10.3812 3.5625 8.45833ZM10.6875 3.625C9.42772 3.625 8.21954 4.13422 7.32874 5.04065C6.43794 5.94708 5.9375 7.17645 5.9375 8.45833C5.9375 9.74021 6.43794 10.9696 7.32874 11.876C8.21954 12.7824 9.42772 13.2917 10.6875 13.2917C11.9473 13.2917 13.1555 12.7824 14.0463 11.876C14.9371 10.9696 15.4375 9.74021 15.4375 8.45833C15.4375 7.17645 14.9371 5.94708 14.0463 5.04065C13.1555 4.13422 11.9473 3.625 10.6875 3.625Z" fill="#245373"/>
</svg>
